<?xml version="1.0" encoding="utf-8"?>
<!-- Generator: Adobe Illustrator 24.1.1, SVG Export Plug-In . SVG Version: 6.00 Build 0)  -->
<svg version="1.1" id="Layer_1" xmlns="http://www.w3.org/2000/svg" xmlns:xlink="http://www.w3.org/1999/xlink" x="0px" y="0px"
	 viewBox="0 0 288 560" style="enable-background:new 0 0 288 560;" xml:space="preserve">
<style type="text/css">
	.st0{fill:#FFCC66;stroke:#000000;stroke-width:2;stroke-linecap:round;stroke-linejoin:round;stroke-miterlimit:10;}
	.st1{fill:#FFD173;stroke:#000000;stroke-width:2;stroke-linecap:round;stroke-linejoin:round;stroke-miterlimit:10;}
	.st2{fill:#FFD173;stroke:#000000;stroke-linejoin:bevel;stroke-miterlimit:10;}
	.st3{fill:#FFD173;}
	.st4{fill:none;stroke:#000000;stroke-linejoin:bevel;stroke-miterlimit:10;}
	.st5{fill:none;stroke:#000000;stroke-linejoin:round;stroke-miterlimit:10;}
	.st6{fill:#FFD173;stroke:#000000;stroke-width:4;stroke-linejoin:bevel;stroke-miterlimit:10;}
	.st7{fill:#FFD173;stroke:#000000;stroke-linejoin:round;stroke-miterlimit:10;}
	.st8{font-family:'AlegreyaSansSC-Light';}
	.st9{font-size:12px;}
	.st10{fill:#FFCC66;stroke:#000000;stroke-width:0.3;stroke-miterlimit:10;}
	.st11{font-size:22px;}
	.st12{fill:#FFCC66;stroke:#FFCC66;stroke-width:2;stroke-linecap:round;stroke-linejoin:round;stroke-miterlimit:10;}
	.st13{fill:#FFD173;stroke:#FFCC66;stroke-width:2;stroke-linecap:round;stroke-linejoin:round;stroke-miterlimit:10;}
	.st14{fill:#FFD173;stroke:#FFCC66;stroke-linejoin:bevel;stroke-miterlimit:10;}
	.st15{fill:none;stroke:#FFCC66;stroke-linejoin:bevel;stroke-miterlimit:10;}
	.st16{fill:none;stroke:#FFCC66;stroke-linejoin:round;stroke-miterlimit:10;}
	.st17{fill:#FFD173;stroke:#FFCC66;stroke-width:4;stroke-linejoin:bevel;stroke-miterlimit:10;}
	.st18{fill:#FFD173;stroke:#FFCC66;stroke-linejoin:round;stroke-miterlimit:10;}
	.st19{fill:#FFCC66;}
</style>
<rect x="35.21" y="17.38" width="225.41" height="98.33"/>
<g>
	<line class="st0" x1="65.49" y1="176.85" x2="105.79" y2="146.6"/>
	<line class="st1" x1="148.96" y1="177.14" x2="106.11" y2="146.61"/>
	<line class="st1" x1="123.63" y1="177.02" x2="163.15" y2="147.37"/>
	<line class="st1" x1="203.81" y1="176.65" x2="163.15" y2="147.37"/>
	<line class="st2" x1="74.95" y1="169.83" x2="74.95" y2="149.92"/>
	<line class="st2" x1="77.98" y1="149.9" x2="77.98" y2="167.5"/>
	<path class="st2" d="M78.5,149.9"/>
	<path class="st2" d="M74.74,149.9"/>
	<line class="st2" x1="74.6" y1="149.9" x2="78.33" y2="149.9"/>
	<line class="st2" x1="194.08" y1="149.29" x2="194.08" y2="169.84"/>
	<line class="st2" x1="191.05" y1="149.26" x2="191.05" y2="167.44"/>
	<path class="st2" d="M190.54,149.91"/>
	<path class="st2" d="M194.29,149.91"/>
	<line class="st2" x1="194.43" y1="149.91" x2="190.71" y2="149.91"/>
	<g>
		<path class="st3" d="M76.05,152.06"/>
		<g>
			<path class="st4" d="M76.05,152.06"/>
		</g>
	</g>
	<g>
		<path class="st3" d="M76.55,153.94"/>
		<g>
			<path class="st5" d="M76.55,153.94"/>
		</g>
	</g>
	<line class="st6" x1="76.46" y1="149.21" x2="76.46" y2="167.17"/>
	<path class="st7" d="M77.2,167.62c-0.66-0.2-1.36,0.13-2.03,0.05c-0.03,0-0.06,0-0.07,0.02c-0.08,0.13,0.01,0.74,0.1,0.87
		c0.13,0.19,0.33,0.19,0.53,0.13c0.27-0.09,0.54-0.35,0.77-0.52C76.58,168.1,77.11,167.59,77.2,167.62z"/>
	<path class="st7" d="M75.48,168.22c0.19-0.11,0.41-0.17,0.62-0.17c-0.15,0.17-0.38,0.25-0.59,0.19c0.02-0.14,0.16-0.24,0.29-0.22"
		/>
	<line class="st6" x1="192.57" y1="149.26" x2="192.57" y2="167.11"/>
	<path class="st7" d="M193.39,167.35c-0.28-0.14-0.59-0.21-0.9-0.21c0.21,0.22,0.56,0.32,0.86,0.24c-0.03-0.18-0.23-0.31-0.41-0.28"
		/>
	<path class="st7" d="M193.46,166.48c-0.12,0.35-0.22,0.73-0.27,1.11c-0.02,0.13-0.09,0.45-0.06,0.57c0.03,0.11,0.23,0.21,0.3,0.26
		c0.06,0.04,0.13,0.07,0.19,0.02c0.02-0.02,0.04-0.06,0.06-0.1c0.2-0.49,0.28-1.08,0.23-1.64"/>
	<path class="st7" d="M191.58,166.98c0.29,0.39,0.62,0.75,0.98,1.07c0.04,0.04,0.08,0.07,0.14,0.08"/>
	<path class="st7" d="M192.45,167.84c0.11,0.11,0.23,0.22,0.36,0.31c0.09,0.07,0.19,0.13,0.3,0.11"/>
	<path class="st7" d="M193.61,168.58c-0.02,0.24,0.01,0.49,0.11,0.72"/>
	<g>
		<text transform="matrix(1.4001 0 0 1 62.5735 215.184)" class="st8 st9">new home inventory</text>
	</g>
	<g>
		<text transform="matrix(1.1286 0 0 1 52.4498 199.3836)" class="st10 st8 st11">Central Florida</text>
	</g>
</g>
<g>
	<g>
		<line class="st12" x1="77.84" y1="58.4" x2="118.14" y2="28.15"/>
		<line class="st13" x1="161.31" y1="58.69" x2="118.46" y2="28.16"/>
		<line class="st13" x1="135.98" y1="58.58" x2="175.49" y2="28.92"/>
		<line class="st13" x1="216.15" y1="58.21" x2="175.49" y2="28.92"/>
		<line class="st14" x1="87.3" y1="51.38" x2="87.3" y2="31.48"/>
		<line class="st14" x1="90.33" y1="31.45" x2="90.33" y2="49.05"/>
		<path class="st14" d="M90.85,31.45"/>
		<path class="st14" d="M87.09,31.45"/>
		<line class="st14" x1="86.95" y1="31.45" x2="90.68" y2="31.45"/>
		<line class="st14" x1="206.43" y1="30.85" x2="206.43" y2="51.39"/>
		<line class="st14" x1="203.4" y1="30.82" x2="203.4" y2="48.99"/>
		<path class="st14" d="M202.89,31.46"/>
		<path class="st14" d="M206.64,31.46"/>
		<line class="st14" x1="206.78" y1="31.46" x2="203.06" y2="31.46"/>
		<g>
			<path class="st3" d="M88.4,33.61"/>
			<g>
				<path class="st15" d="M88.4,33.61"/>
			</g>
		</g>
		<g>
			<path class="st3" d="M88.9,35.49"/>
			<g>
				<path class="st16" d="M88.9,35.49"/>
			</g>
		</g>
		<line class="st17" x1="88.81" y1="30.76" x2="88.81" y2="48.72"/>
		<path class="st18" d="M89.55,49.17c-0.66-0.2-1.36,0.13-2.03,0.05c-0.03,0-0.06,0-0.07,0.02c-0.08,0.13,0.01,0.74,0.1,0.87
			c0.13,0.19,0.33,0.19,0.53,0.13c0.27-0.09,0.54-0.35,0.77-0.52C88.93,49.65,89.46,49.14,89.55,49.17z"/>
		<path class="st18" d="M87.83,49.78c0.19-0.11,0.41-0.17,0.62-0.17c-0.15,0.17-0.38,0.25-0.59,0.19c0.02-0.14,0.16-0.24,0.29-0.22"
			/>
		<line class="st17" x1="204.92" y1="30.82" x2="204.92" y2="48.67"/>
		<path class="st18" d="M205.74,48.9c-0.28-0.14-0.59-0.21-0.9-0.21c0.21,0.22,0.56,0.32,0.86,0.24c-0.03-0.18-0.23-0.31-0.41-0.28"
			/>
		<path class="st18" d="M205.81,48.03c-0.12,0.35-0.22,0.73-0.27,1.11c-0.02,0.13-0.09,0.45-0.06,0.57c0.03,0.11,0.23,0.21,0.3,0.26
			c0.06,0.04,0.13,0.07,0.19,0.02c0.02-0.02,0.04-0.06,0.06-0.1c0.2-0.49,0.28-1.08,0.23-1.64"/>
		<path class="st18" d="M203.93,48.53c0.29,0.39,0.62,0.75,0.98,1.07c0.04,0.04,0.08,0.07,0.14,0.08"/>
		<path class="st18" d="M204.8,49.39c0.11,0.11,0.23,0.22,0.36,0.31c0.09,0.07,0.19,0.13,0.3,0.11"/>
		<path class="st18" d="M205.96,50.14c-0.02,0.24,0.01,0.49,0.11,0.72"/>
	</g>
	<text transform="matrix(1.4001 0 0 1 74.9231 96.7349)" class="st3 st8 st9">new home inventory</text>
	<g>
		<text transform="matrix(1.1286 0 0 1 64.7994 80.9345)" class="st19 st8 st11">Central Florida</text>
	</g>
</g>
<text transform="matrix(1.4342 0 0 1 -254.1677 414.0365)" class="st10 st8 st11">CFNH</text>
<g>
	<text transform="matrix(1.4342 0 0 1 52.9489 385.592)" class="st10 st8 st11">CFNH</text>
	<line class="st0" x1="55.36" y1="366.17" x2="89.37" y2="340.64"/>
	<line class="st1" x1="125.8" y1="366.41" x2="89.64" y2="340.65"/>
	<line class="st2" x1="62.34" y1="360.24" x2="62.34" y2="342.83"/>
	<line class="st2" x1="65.9" y1="343.42" x2="65.9" y2="358.28"/>
	<path class="st2" d="M66.33,343.42"/>
	<path class="st2" d="M63.16,343.42"/>
	<line class="st2" x1="63.04" y1="343.42" x2="66.19" y2="343.42"/>
	<g>
		<path class="st3" d="M64.26,345.24"/>
		<g>
			<path class="st4" d="M64.26,345.24"/>
		</g>
	</g>
	<g>
		<path class="st3" d="M64.69,346.83"/>
		<g>
			<path class="st5" d="M64.69,346.83"/>
		</g>
	</g>
	<line class="st6" x1="64.62" y1="342.84" x2="64.62" y2="358"/>
	<path class="st7" d="M65.24,358.38c-0.55-0.17-1.14,0.11-1.72,0.04c-0.02,0-0.05,0-0.06,0.02c-0.07,0.11,0.01,0.63,0.08,0.74
		c0.11,0.16,0.28,0.16,0.45,0.11c0.23-0.08,0.45-0.3,0.65-0.44C64.72,358.78,65.16,358.36,65.24,358.38z"/>
	<path class="st7" d="M63.79,358.89c0.16-0.09,0.34-0.14,0.53-0.14c-0.12,0.15-0.32,0.21-0.5,0.16c0.02-0.12,0.13-0.2,0.24-0.18"/>
	<path class="st4" d="M63.25,357.47c-0.11,0.32-0.21,0.65-0.25,0.99s-0.01,0.69,0.14,1c0.03-0.06,0.06-0.11,0.09-0.17"/>
</g>
<g>
	<text transform="matrix(1.4342 0 0 1 145.7995 384.9941)" class="st10 st8 st11">CFNHI</text>
	<line class="st0" x1="152.82" y1="366.01" x2="186.84" y2="340.48"/>
	<line class="st1" x1="223.27" y1="366.26" x2="187.1" y2="340.49"/>
	<line class="st2" x1="159.8" y1="360.08" x2="159.8" y2="342.67"/>
	<line class="st2" x1="163.36" y1="343.26" x2="163.36" y2="358.12"/>
	<path class="st2" d="M163.8,343.26"/>
	<path class="st2" d="M160.63,343.26"/>
	<line class="st2" x1="160.51" y1="343.26" x2="163.66" y2="343.26"/>
	<g>
		<path class="st3" d="M161.73,345.09"/>
		<g>
			<path class="st4" d="M161.73,345.09"/>
		</g>
	</g>
	<g>
		<path class="st3" d="M162.16,346.68"/>
		<g>
			<path class="st5" d="M162.16,346.68"/>
		</g>
	</g>
	<line class="st6" x1="162.08" y1="342.68" x2="162.08" y2="357.84"/>
	<path class="st7" d="M162.7,358.22c-0.55-0.17-1.14,0.11-1.72,0.04c-0.02,0-0.05,0-0.06,0.02c-0.07,0.11,0.01,0.63,0.08,0.74
		c0.11,0.16,0.28,0.16,0.45,0.11c0.23-0.08,0.45-0.3,0.65-0.44C162.18,358.62,162.63,358.2,162.7,358.22z"/>
	<path class="st7" d="M161.25,358.73c0.16-0.09,0.34-0.14,0.53-0.14c-0.12,0.15-0.32,0.21-0.5,0.16c0.02-0.12,0.13-0.2,0.24-0.18"/>
	<path class="st4" d="M160.71,357.32c-0.11,0.32-0.21,0.65-0.25,0.99c-0.04,0.34-0.01,0.69,0.14,1c0.03-0.06,0.06-0.11,0.09-0.17"/>
</g>
<g>
	<text transform="matrix(1.4342 0 0 1 53.661 462.7209)" class="st19 st8 st11">CFNH</text>
	<line class="st12" x1="56.07" y1="443.3" x2="90.08" y2="417.77"/>
	<line class="st13" x1="126.52" y1="443.54" x2="90.35" y2="417.78"/>
	<line class="st14" x1="63.05" y1="437.37" x2="63.05" y2="419.96"/>
	<line class="st14" x1="66.61" y1="420.55" x2="66.61" y2="435.4"/>
	<path class="st14" d="M67.05,420.55"/>
	<path class="st14" d="M63.87,420.55"/>
	<line class="st14" x1="63.76" y1="420.55" x2="66.9" y2="420.55"/>
	<g>
		<path class="st3" d="M64.98,422.37"/>
		<g>
			<path class="st15" d="M64.98,422.37"/>
		</g>
	</g>
	<g>
		<path class="st3" d="M65.4,423.96"/>
		<g>
			<path class="st16" d="M65.4,423.96"/>
		</g>
	</g>
	<line class="st17" x1="65.33" y1="419.97" x2="65.33" y2="435.13"/>
	<path class="st18" d="M65.95,435.51c-0.55-0.17-1.14,0.11-1.72,0.04c-0.02,0-0.05,0-0.06,0.02c-0.07,0.11,0.01,0.63,0.08,0.74
		c0.11,0.16,0.28,0.16,0.45,0.11c0.23-0.08,0.45-0.3,0.65-0.44C65.43,435.91,65.87,435.49,65.95,435.51z"/>
	<path class="st18" d="M64.5,436.02c0.16-0.09,0.34-0.14,0.53-0.14c-0.12,0.15-0.32,0.21-0.5,0.16c0.02-0.12,0.13-0.2,0.24-0.18"/>
	<path class="st15" d="M63.96,434.6c-0.11,0.32-0.21,0.65-0.25,0.99c-0.04,0.34-0.01,0.69,0.14,1c0.03-0.06,0.06-0.11,0.09-0.17"/>
</g>
<g>
	<text transform="matrix(1.4342 0 0 1 146.5115 462.123)" class="st19 st8 st11">CFNHI</text>
	<line class="st12" x1="153.53" y1="443.14" x2="187.55" y2="417.61"/>
	<line class="st13" x1="223.98" y1="443.39" x2="187.81" y2="417.62"/>
	<line class="st14" x1="160.52" y1="437.21" x2="160.52" y2="419.8"/>
	<line class="st14" x1="164.07" y1="420.39" x2="164.07" y2="435.25"/>
	<path class="st14" d="M164.51,420.39"/>
	<path class="st14" d="M161.34,420.39"/>
	<line class="st14" x1="161.22" y1="420.39" x2="164.37" y2="420.39"/>
	<g>
		<path class="st3" d="M162.44,422.21"/>
		<g>
			<path class="st15" d="M162.44,422.21"/>
		</g>
	</g>
	<g>
		<path class="st3" d="M162.87,423.8"/>
		<g>
			<path class="st16" d="M162.87,423.8"/>
		</g>
	</g>
	<line class="st17" x1="162.79" y1="419.81" x2="162.79" y2="434.97"/>
	<path class="st18" d="M163.41,435.35c-0.55-0.17-1.14,0.11-1.72,0.04c-0.02,0-0.05,0-0.06,0.02c-0.07,0.11,0.01,0.63,0.08,0.74
		c0.11,0.16,0.28,0.16,0.45,0.11c0.23-0.08,0.45-0.3,0.65-0.44C162.9,435.75,163.34,435.33,163.41,435.35z"/>
	<path class="st18" d="M161.96,435.86c0.16-0.09,0.34-0.14,0.53-0.14c-0.12,0.15-0.32,0.21-0.5,0.16c0.02-0.12,0.13-0.2,0.24-0.18"
		/>
	<path class="st15" d="M161.42,434.45c-0.11,0.32-0.21,0.65-0.25,0.99c-0.04,0.34-0.01,0.69,0.14,1c0.03-0.06,0.06-0.11,0.09-0.17"
		/>
</g>
<g>
	<text transform="matrix(1.4342 0 0 1 53.8555 536.1668)" class="st10 st8 st11">CFNH</text>
	<line class="st12" x1="56.26" y1="516.75" x2="90.28" y2="491.22"/>
	<line class="st13" x1="126.71" y1="516.99" x2="90.54" y2="491.22"/>
	<line class="st14" x1="63.25" y1="510.82" x2="63.25" y2="493.41"/>
	<line class="st14" x1="66.8" y1="494" x2="66.8" y2="508.85"/>
	<path class="st14" d="M67.24,494"/>
	<path class="st14" d="M64.07,494"/>
	<line class="st14" x1="63.95" y1="494" x2="67.1" y2="494"/>
	<g>
		<path class="st3" d="M65.17,495.82"/>
		<g>
			<path class="st15" d="M65.17,495.82"/>
		</g>
	</g>
	<g>
		<path class="st3" d="M65.6,497.41"/>
		<g>
			<path class="st16" d="M65.6,497.41"/>
		</g>
	</g>
	<line class="st17" x1="65.52" y1="493.41" x2="65.52" y2="508.58"/>
	<path class="st18" d="M66.14,508.95c-0.55-0.17-1.14,0.11-1.72,0.04c-0.02,0-0.05,0-0.06,0.02c-0.07,0.11,0.01,0.63,0.08,0.74
		c0.11,0.16,0.28,0.16,0.45,0.11c0.23-0.08,0.45-0.3,0.65-0.44C65.62,509.36,66.07,508.93,66.14,508.95z"/>
	<path class="st18" d="M64.69,509.46c0.16-0.09,0.34-0.14,0.53-0.14c-0.12,0.15-0.32,0.21-0.5,0.16c0.02-0.12,0.13-0.2,0.24-0.18"/>
	<path class="st15" d="M64.15,508.05c-0.11,0.32-0.21,0.65-0.25,0.99c-0.04,0.34-0.01,0.69,0.14,1c0.03-0.06,0.06-0.11,0.09-0.17"/>
</g>
<g>
	<text transform="matrix(1.4342 0 0 1 146.7061 535.5689)" class="st10 st8 st11">CFNHI</text>
	<line class="st12" x1="153.73" y1="516.59" x2="187.74" y2="491.06"/>
	<line class="st13" x1="224.18" y1="516.83" x2="188.01" y2="491.07"/>
	<line class="st14" x1="160.71" y1="510.66" x2="160.71" y2="493.25"/>
	<line class="st14" x1="164.27" y1="493.84" x2="164.27" y2="508.69"/>
	<path class="st14" d="M164.71,493.84"/>
	<path class="st14" d="M161.53,493.84"/>
	<line class="st14" x1="161.42" y1="493.84" x2="164.56" y2="493.84"/>
	<g>
		<path class="st3" d="M162.64,495.66"/>
		<g>
			<path class="st15" d="M162.64,495.66"/>
		</g>
	</g>
	<g>
		<path class="st3" d="M163.06,497.25"/>
		<g>
			<path class="st16" d="M163.06,497.25"/>
		</g>
	</g>
	<line class="st17" x1="162.99" y1="493.26" x2="162.99" y2="508.42"/>
	<path class="st18" d="M163.61,508.8c-0.55-0.17-1.14,0.11-1.72,0.04c-0.02,0-0.05,0-0.06,0.02c-0.07,0.11,0.01,0.63,0.08,0.74
		c0.11,0.16,0.28,0.16,0.45,0.11c0.23-0.08,0.45-0.3,0.65-0.44C163.09,509.2,163.53,508.77,163.61,508.8z"/>
	<path class="st18" d="M162.16,509.31c0.16-0.09,0.34-0.14,0.53-0.14c-0.12,0.15-0.32,0.21-0.5,0.16c0.02-0.12,0.13-0.2,0.24-0.18"
		/>
	<path class="st15" d="M161.62,507.89c-0.11,0.32-0.21,0.65-0.25,0.99c-0.04,0.34-0.01,0.69,0.14,1c0.03-0.06,0.06-0.11,0.09-0.17"
		/>
</g>
<g>
	<line class="st12" x1="67.56" y1="271.9" x2="107.86" y2="241.65"/>
	<line class="st13" x1="151.03" y1="272.19" x2="108.18" y2="241.66"/>
	<line class="st13" x1="125.7" y1="272.07" x2="165.21" y2="242.41"/>
	<line class="st13" x1="205.87" y1="271.7" x2="165.21" y2="242.41"/>
	<line class="st14" x1="77.02" y1="264.87" x2="77.02" y2="244.97"/>
	<line class="st14" x1="80.05" y1="244.94" x2="80.05" y2="262.54"/>
	<path class="st14" d="M80.56,244.94"/>
	<path class="st14" d="M76.81,244.94"/>
	<line class="st14" x1="76.67" y1="244.94" x2="80.4" y2="244.94"/>
	<line class="st14" x1="196.15" y1="244.34" x2="196.15" y2="264.89"/>
	<line class="st14" x1="193.12" y1="244.31" x2="193.12" y2="262.48"/>
	<path class="st14" d="M192.6,244.96"/>
	<path class="st14" d="M196.36,244.96"/>
	<line class="st14" x1="196.5" y1="244.96" x2="192.77" y2="244.96"/>
	<g>
		<path class="st3" d="M78.11,247.1"/>
		<g>
			<path class="st15" d="M78.11,247.1"/>
		</g>
	</g>
	<g>
		<path class="st3" d="M78.62,248.99"/>
		<g>
			<path class="st16" d="M78.62,248.99"/>
		</g>
	</g>
	<line class="st17" x1="78.53" y1="244.25" x2="78.53" y2="262.22"/>
	<path class="st18" d="M79.27,262.67c-0.66-0.2-1.36,0.13-2.03,0.05c-0.03,0-0.06,0-0.07,0.02c-0.08,0.13,0.01,0.74,0.1,0.87
		c0.13,0.19,0.33,0.19,0.53,0.13c0.27-0.09,0.54-0.35,0.77-0.52C78.65,263.14,79.18,262.64,79.27,262.67z"/>
	<path class="st18" d="M77.55,263.27c0.19-0.11,0.41-0.17,0.62-0.17c-0.15,0.17-0.38,0.25-0.59,0.19c0.02-0.14,0.16-0.24,0.29-0.22"
		/>
	<line class="st17" x1="194.64" y1="244.31" x2="194.64" y2="262.16"/>
	<path class="st18" d="M195.46,262.4c-0.28-0.14-0.59-0.21-0.9-0.21c0.21,0.22,0.56,0.32,0.86,0.24c-0.03-0.18-0.23-0.31-0.41-0.28"
		/>
	<path class="st18" d="M195.53,261.52c-0.12,0.35-0.22,0.73-0.27,1.11c-0.02,0.13-0.09,0.45-0.06,0.57c0.03,0.11,0.23,0.21,0.3,0.26
		c0.06,0.04,0.13,0.07,0.19,0.02c0.02-0.02,0.04-0.06,0.06-0.1c0.2-0.49,0.28-1.08,0.23-1.64"/>
	<path class="st18" d="M193.65,262.02c0.29,0.39,0.62,0.75,0.98,1.07c0.04,0.04,0.08,0.07,0.14,0.08"/>
	<path class="st18" d="M194.52,262.89c0.11,0.11,0.23,0.22,0.36,0.31c0.09,0.07,0.19,0.13,0.3,0.11"/>
	<path class="st18" d="M195.68,263.63c-0.02,0.24,0.01,0.49,0.11,0.72"/>
</g>
<text transform="matrix(1.4001 0 0 1 64.6413 310.2296)" class="st3 st8 st9">new home inventory</text>
<g>
	<text transform="matrix(1.1286 0 0 1 54.5176 294.4292)" class="st10 st8 st11">Central Florida</text>
</g>
</svg>
